DataType=double
version=3
OpenSimVersion=4.5-2023-11-26-efcdfd3eb
endheader
time	EMG01_right_gast_med	EMG02_right_glut_max	EMG03_left_gast_med	EMG04_left_glut_max	EMG05_right_glut_med	EMG06_right_bic_fem	EMG07_right_rect_fem	EMG08_right_vast_lat	EMG09_right_vast_med	EMG10_right_tens_fasc_lat	EMG11_left_glut_med	EMG12_left_bic_fem	EMG13_left_rect_fem	EMG14_left_vast_lat	EMG15_left_vast_med	EMG16_left_tens_fasc_lat
1.67	29.75478555639536	36.87461224558159	16.9182144065429	48.00974999709784	116.6379957352055	59.21124218198037	10.88797314756656	19.00222088158339	72.68930268716244	34.76931316834131	3.082940779665631	1.492900159931909	4.109430520059039	7.77257869604199	26.18310812369062	47.72012471876081
1.68	31.97817752469197	37.19637680116848	12.83837981157651	50.48151182742373	114.1834867783946	55.4732656404173	10.64642568001349	18.74265722575692	72.14166172176286	35.15435031750776	3.045129719547903	1.294802618456806	3.954913490802424	7.767467980235088	26.17048730844281	50.97900637596332
1.69	34.47800723406316	37.35470291558181	9.133136798363346	52.83857671373581	111.2145509090252	51.69506931488547	10.37281476970928	18.41251218838837	71.29359662617422	35.4019707217351	3.016766804646332	1.144694771947779	3.790840208663516	7.746754695042286	25.98385240134997	54.12920242017202
1.7	37.26860336516977	37.3439089711331	5.806864269582083	55.0603843273132	107.7700457146756	47.91200420978015	10.07062835725824	18.01458493374477	70.15517096896602	35.50742361467512	2.998924266743257	1.049690556043698	3.619372527217442	7.712882045749262	25.62380544133845	57.12122702713886
1.71	40.36236920285501	37.16052193601724	2.858983478573284	57.12823656914367	103.8937718388451	44.15814955299354	9.743626979313865	17.55248909471358	68.73920307975405	35.46767840735176	2.992746409881087	1.016787810678187	3.442867318404041	7.668786198294251	25.09362751203566	59.90869788226445
1.72	43.76946521347801	36.80327224405134	0.284354427977942	59.0255941380424	99.63390875442251	40.46583637584781	9.395790776359011	17.03060430093901	67.06106838793173	35.28153392281477	2.999437832567416	1.052786912309676	3.263855129019807	7.617879605863159	24.39933408227563	62.44905063298463
1.73	47.49747969526343	36.27305939884768	-1.926279413411466	60.73831860772996	95.04244164965418	36.86522527565459	9.031265536807057	16.45401257342357	65.13847646317414	34.94970685900289	3.020249935343176	1.164205652943549	3.085016645527836	7.564021009388743	23.54968494334798	64.70419280254912
1.74	51.55108588058042	35.57289066148616	-3.785809445882665	62.25485122613358	90.17458338214892	33.38394459787738	8.654308406264548	15.82842166464898	62.99122548575911	34.4748948442158	3.05646594367406	1.357190793322678	2.90915718259222	7.511471355695355	22.55614647712795	66.64107924971204
1.75	55.93168418169352	34.70779578008921	-5.310254443565944	63.56632316181209	85.08819630503676	30.04679305445964	8.269233925049576	15.16007767732529	60.64093833550655	33.86180991057173	3.109384659235869	1.637426897773488	2.739179452200992	7.464835677505564	21.43280601830594	68.23219313628904
1.76	60.6370303064223	33.68472101619111	-6.51823799390953	64.66659635126986	79.84321898036309	26.875508771888	7.880361030365376	14.45566932347769	58.11078537970066	33.11717908832146	3.18030311506882	2.010043270520673	2.578054850873169	7.428991792583894	20.19623996209568	69.45591995248655
1.77	65.66085379204114	32.51240581133919	-7.430461172427738	65.55223896589486	74.501102032774	23.88860503945137	7.491961559322757	13.72222617626675	55.42519916185363	32.24970991021831	3.270498281987485	2.47952003852797	2.428793464800557	7.409007372841012	18.86533874113693	70.29680706388862
1.78	70.99247638576374	31.20124546997065	-8.0691801505894	66.22244381827629	69.12425604669914	21.10127158653754	7.108210720999858	12.96701332930041	52.60958601115777	31.27001959354441	3.381207984312351	3.04959465795844	2.294412964092435	7.41004747151502	17.46109273359995	70.74570670618301
1.79	76.61644452997182	29.7631431569795	-8.457697705043955	66.67890066761119	63.77551291713202	18.52533896365565	6.733140034683571	12.19742496391809	49.69003935265074	30.19052755051425	3.513611236632837	3.72317034288007	2.177906541313026	7.437274976552988	16.00634371880689	70.79980521083534
1.8	82.51219401105911	28.21135425940364	-8.619876784724655	66.92563381124249	58.5176007872923	16.16930249515928	6.37059329699682	11.42087930516556	46.69305901621509	29.02531200008394	3.668808284434014	4.50222809237311	2.08221004735768	7.495746664161348	14.52550681212256	70.46254455806175
1.81	88.65376697197956	26.56032587054908	-8.579683427074825	66.96881487479784	53.41263187697476	14.0384013361688	6.024186159260916	10.64471724434519	43.64528008326501	27.78993288142878	3.847800683270846	5.387744100346084	2.010168494568844	7.590307555210574	13.04426787316513	69.74344434274165
1.82	95.00960177998684	24.82553391700728	-8.360765384407619	66.81655827463317	48.52160197329139	12.13474739652525	5.697269856793594	9.876106545132734	40.57321405954087	26.50122460944757	4.051471759208308	6.379614364829998	1.964502128341478	7.725486160521919	11.58926120922036	68.65783384431785
1.83	101.5424149864305	23.02332016451005	-7.986071808904288	66.4787044762237	43.90389987138581	10.45749824558639	5.392899555625326	9.121953121064086	37.50300453625953	25.17706310097733	4.280567754967023	7.476588278101452	1.947772297411021	7.90539299352105	10.18773212331555	67.22650531831633
